<mxfile host="app.diagrams.net" agent="Mozilla/5.0 (Windows NT 10.0; Win64; x64) AppleWebKit/537.36 (KHTML, like Gecko) Chrome/134.0.0.0 Safari/537.36" version="26.2.8">
  <diagram name="Página-1" id="EC2mCTOGz3jMwWqQJ8MQ">
    <mxGraphModel dx="1392" dy="1946" grid="1" gridSize="10" guides="1" tooltips="1" connect="1" arrows="1" fold="1" page="1" pageScale="1" pageWidth="827" pageHeight="1169" math="0" shadow="0">
      <root>
        <mxCell id="0" />
        <mxCell id="1" parent="0" />
        <mxCell id="yMi1-A2ktOxe5FDLbaUE-22" style="edgeStyle=orthogonalEdgeStyle;rounded=0;orthogonalLoop=1;jettySize=auto;html=1;" edge="1" parent="1" source="yMi1-A2ktOxe5FDLbaUE-6" target="yMi1-A2ktOxe5FDLbaUE-20">
          <mxGeometry relative="1" as="geometry" />
        </mxCell>
        <mxCell id="yMi1-A2ktOxe5FDLbaUE-27" value="1" style="edgeLabel;html=1;align=center;verticalAlign=middle;resizable=0;points=[];" vertex="1" connectable="0" parent="yMi1-A2ktOxe5FDLbaUE-22">
          <mxGeometry x="-0.3333" y="-2" relative="1" as="geometry">
            <mxPoint as="offset" />
          </mxGeometry>
        </mxCell>
        <mxCell id="yMi1-A2ktOxe5FDLbaUE-6" value="Código&lt;div&gt;Nome&lt;/div&gt;&lt;div&gt;Endereço&lt;/div&gt;&lt;div&gt;Telefone&lt;/div&gt;" style="rounded=1;whiteSpace=wrap;html=1;" vertex="1" parent="1">
          <mxGeometry x="30" y="-720" width="120" height="100" as="geometry" />
        </mxCell>
        <mxCell id="yMi1-A2ktOxe5FDLbaUE-7" value="Cliente" style="rounded=0;whiteSpace=wrap;html=1;fillColor=#C6FF0B;" vertex="1" parent="1">
          <mxGeometry x="30" y="-740" width="120" height="30" as="geometry" />
        </mxCell>
        <mxCell id="yMi1-A2ktOxe5FDLbaUE-36" style="edgeStyle=orthogonalEdgeStyle;rounded=0;orthogonalLoop=1;jettySize=auto;html=1;" edge="1" parent="1" source="yMi1-A2ktOxe5FDLbaUE-8" target="yMi1-A2ktOxe5FDLbaUE-35">
          <mxGeometry relative="1" as="geometry" />
        </mxCell>
        <mxCell id="yMi1-A2ktOxe5FDLbaUE-40" value="1" style="edgeLabel;html=1;align=center;verticalAlign=middle;resizable=0;points=[];" vertex="1" connectable="0" parent="yMi1-A2ktOxe5FDLbaUE-36">
          <mxGeometry x="-0.2" relative="1" as="geometry">
            <mxPoint as="offset" />
          </mxGeometry>
        </mxCell>
        <mxCell id="yMi1-A2ktOxe5FDLbaUE-8" value="Matrícula&lt;div&gt;Nome&lt;/div&gt;&lt;div&gt;Especialidade&lt;/div&gt;" style="rounded=1;whiteSpace=wrap;html=1;" vertex="1" parent="1">
          <mxGeometry x="390" y="-780" width="120" height="100" as="geometry" />
        </mxCell>
        <mxCell id="yMi1-A2ktOxe5FDLbaUE-9" value="Funcionário" style="rounded=0;whiteSpace=wrap;html=1;fillColor=#C6FF0B;" vertex="1" parent="1">
          <mxGeometry x="390" y="-800" width="120" height="30" as="geometry" />
        </mxCell>
        <mxCell id="yMi1-A2ktOxe5FDLbaUE-30" style="edgeStyle=orthogonalEdgeStyle;rounded=0;orthogonalLoop=1;jettySize=auto;html=1;" edge="1" parent="1" source="yMi1-A2ktOxe5FDLbaUE-10" target="yMi1-A2ktOxe5FDLbaUE-29">
          <mxGeometry relative="1" as="geometry" />
        </mxCell>
        <mxCell id="yMi1-A2ktOxe5FDLbaUE-32" value="1" style="edgeLabel;html=1;align=center;verticalAlign=middle;resizable=0;points=[];" vertex="1" connectable="0" parent="yMi1-A2ktOxe5FDLbaUE-30">
          <mxGeometry x="0.025" y="-4" relative="1" as="geometry">
            <mxPoint as="offset" />
          </mxGeometry>
        </mxCell>
        <mxCell id="yMi1-A2ktOxe5FDLbaUE-10" value="Placa&lt;div&gt;Modelo&lt;/div&gt;&lt;div&gt;Cor&lt;/div&gt;&lt;div&gt;Ano&lt;/div&gt;&lt;div&gt;Marca&lt;/div&gt;" style="rounded=1;whiteSpace=wrap;html=1;" vertex="1" parent="1">
          <mxGeometry x="30" y="-410" width="120" height="100" as="geometry" />
        </mxCell>
        <mxCell id="yMi1-A2ktOxe5FDLbaUE-11" value="Veículo" style="rounded=0;whiteSpace=wrap;html=1;fillColor=#C6FF0B;" vertex="1" parent="1">
          <mxGeometry x="30" y="-430" width="120" height="30" as="geometry" />
        </mxCell>
        <mxCell id="yMi1-A2ktOxe5FDLbaUE-12" value="Código&lt;div&gt;Descrição&lt;/div&gt;&lt;div&gt;Valor&lt;/div&gt;" style="rounded=1;whiteSpace=wrap;html=1;" vertex="1" parent="1">
          <mxGeometry x="130" y="-220" width="120" height="100" as="geometry" />
        </mxCell>
        <mxCell id="yMi1-A2ktOxe5FDLbaUE-13" value="Serviço" style="rounded=0;whiteSpace=wrap;html=1;fillColor=#C6FF0B;" vertex="1" parent="1">
          <mxGeometry x="130" y="-240" width="120" height="30" as="geometry" />
        </mxCell>
        <mxCell id="yMi1-A2ktOxe5FDLbaUE-47" style="edgeStyle=orthogonalEdgeStyle;rounded=0;orthogonalLoop=1;jettySize=auto;html=1;" edge="1" parent="1" source="yMi1-A2ktOxe5FDLbaUE-14" target="yMi1-A2ktOxe5FDLbaUE-46">
          <mxGeometry relative="1" as="geometry" />
        </mxCell>
        <mxCell id="yMi1-A2ktOxe5FDLbaUE-49" value="1" style="edgeLabel;html=1;align=center;verticalAlign=middle;resizable=0;points=[];" vertex="1" connectable="0" parent="yMi1-A2ktOxe5FDLbaUE-47">
          <mxGeometry x="-0.25" y="3" relative="1" as="geometry">
            <mxPoint as="offset" />
          </mxGeometry>
        </mxCell>
        <mxCell id="yMi1-A2ktOxe5FDLbaUE-14" value="Número&lt;div&gt;Data Emissão&lt;/div&gt;&lt;div&gt;Descrição&lt;/div&gt;" style="rounded=1;whiteSpace=wrap;html=1;" vertex="1" parent="1">
          <mxGeometry x="390" y="-410" width="120" height="100" as="geometry" />
        </mxCell>
        <mxCell id="yMi1-A2ktOxe5FDLbaUE-15" value="Ordem de Serviço" style="rounded=0;whiteSpace=wrap;html=1;fillColor=#C6FF0B;" vertex="1" parent="1">
          <mxGeometry x="390" y="-430" width="120" height="30" as="geometry" />
        </mxCell>
        <mxCell id="yMi1-A2ktOxe5FDLbaUE-16" value="Número OS&lt;div&gt;Código Serviço&lt;/div&gt;&lt;div&gt;Quantidade&lt;/div&gt;" style="rounded=1;whiteSpace=wrap;html=1;" vertex="1" parent="1">
          <mxGeometry x="680" y="-220" width="120" height="100" as="geometry" />
        </mxCell>
        <mxCell id="yMi1-A2ktOxe5FDLbaUE-17" value="Serviço Realizado" style="rounded=0;whiteSpace=wrap;html=1;fillColor=#C6FF0B;" vertex="1" parent="1">
          <mxGeometry x="680" y="-240" width="120" height="30" as="geometry" />
        </mxCell>
        <mxCell id="yMi1-A2ktOxe5FDLbaUE-24" style="edgeStyle=orthogonalEdgeStyle;rounded=0;orthogonalLoop=1;jettySize=auto;html=1;entryX=0.5;entryY=0;entryDx=0;entryDy=0;" edge="1" parent="1" source="yMi1-A2ktOxe5FDLbaUE-20" target="yMi1-A2ktOxe5FDLbaUE-11">
          <mxGeometry relative="1" as="geometry" />
        </mxCell>
        <mxCell id="yMi1-A2ktOxe5FDLbaUE-28" value="N" style="edgeLabel;html=1;align=center;verticalAlign=middle;resizable=0;points=[];" vertex="1" connectable="0" parent="yMi1-A2ktOxe5FDLbaUE-24">
          <mxGeometry x="-0.12" y="-1" relative="1" as="geometry">
            <mxPoint as="offset" />
          </mxGeometry>
        </mxCell>
        <mxCell id="yMi1-A2ktOxe5FDLbaUE-20" value="Possui" style="rhombus;whiteSpace=wrap;html=1;fillColor=#0000FF;" vertex="1" parent="1">
          <mxGeometry x="50" y="-570" width="80" height="80" as="geometry" />
        </mxCell>
        <mxCell id="yMi1-A2ktOxe5FDLbaUE-31" style="edgeStyle=orthogonalEdgeStyle;rounded=0;orthogonalLoop=1;jettySize=auto;html=1;" edge="1" parent="1" source="yMi1-A2ktOxe5FDLbaUE-29" target="yMi1-A2ktOxe5FDLbaUE-14">
          <mxGeometry relative="1" as="geometry" />
        </mxCell>
        <mxCell id="yMi1-A2ktOxe5FDLbaUE-33" value="N" style="edgeLabel;html=1;align=center;verticalAlign=middle;resizable=0;points=[];" vertex="1" connectable="0" parent="yMi1-A2ktOxe5FDLbaUE-31">
          <mxGeometry x="-0.0333" y="-2" relative="1" as="geometry">
            <mxPoint as="offset" />
          </mxGeometry>
        </mxCell>
        <mxCell id="yMi1-A2ktOxe5FDLbaUE-29" value="Está em" style="rhombus;whiteSpace=wrap;html=1;fillColor=#0000FF;" vertex="1" parent="1">
          <mxGeometry x="230" y="-400" width="80" height="80" as="geometry" />
        </mxCell>
        <mxCell id="yMi1-A2ktOxe5FDLbaUE-39" style="edgeStyle=orthogonalEdgeStyle;rounded=0;orthogonalLoop=1;jettySize=auto;html=1;" edge="1" parent="1" source="yMi1-A2ktOxe5FDLbaUE-35" target="yMi1-A2ktOxe5FDLbaUE-15">
          <mxGeometry relative="1" as="geometry" />
        </mxCell>
        <mxCell id="yMi1-A2ktOxe5FDLbaUE-41" value="N" style="edgeLabel;html=1;align=center;verticalAlign=middle;resizable=0;points=[];" vertex="1" connectable="0" parent="yMi1-A2ktOxe5FDLbaUE-39">
          <mxGeometry x="-0.1111" y="3" relative="1" as="geometry">
            <mxPoint as="offset" />
          </mxGeometry>
        </mxCell>
        <mxCell id="yMi1-A2ktOxe5FDLbaUE-35" value="Emite" style="rhombus;whiteSpace=wrap;html=1;fillColor=#0000FF;" vertex="1" parent="1">
          <mxGeometry x="410" y="-600" width="80" height="80" as="geometry" />
        </mxCell>
        <mxCell id="yMi1-A2ktOxe5FDLbaUE-46" value="Contém" style="rhombus;whiteSpace=wrap;html=1;fillColor=#0000FF;" vertex="1" parent="1">
          <mxGeometry x="410" y="-220" width="80" height="80" as="geometry" />
        </mxCell>
        <mxCell id="yMi1-A2ktOxe5FDLbaUE-59" style="edgeStyle=orthogonalEdgeStyle;rounded=0;orthogonalLoop=1;jettySize=auto;html=1;entryX=0.042;entryY=0.4;entryDx=0;entryDy=0;entryPerimeter=0;" edge="1" parent="1" source="yMi1-A2ktOxe5FDLbaUE-46" target="yMi1-A2ktOxe5FDLbaUE-16">
          <mxGeometry relative="1" as="geometry" />
        </mxCell>
        <mxCell id="yMi1-A2ktOxe5FDLbaUE-63" value="N" style="edgeLabel;html=1;align=center;verticalAlign=middle;resizable=0;points=[];" vertex="1" connectable="0" parent="yMi1-A2ktOxe5FDLbaUE-59">
          <mxGeometry x="0.0254" y="-1" relative="1" as="geometry">
            <mxPoint as="offset" />
          </mxGeometry>
        </mxCell>
        <mxCell id="yMi1-A2ktOxe5FDLbaUE-60" style="edgeStyle=orthogonalEdgeStyle;rounded=0;orthogonalLoop=1;jettySize=auto;html=1;entryX=1.017;entryY=0.4;entryDx=0;entryDy=0;entryPerimeter=0;" edge="1" parent="1" source="yMi1-A2ktOxe5FDLbaUE-46" target="yMi1-A2ktOxe5FDLbaUE-12">
          <mxGeometry relative="1" as="geometry" />
        </mxCell>
        <mxCell id="yMi1-A2ktOxe5FDLbaUE-61" value="N" style="edgeLabel;html=1;align=center;verticalAlign=middle;resizable=0;points=[];" vertex="1" connectable="0" parent="yMi1-A2ktOxe5FDLbaUE-60">
          <mxGeometry x="-0.0884" y="-2" relative="1" as="geometry">
            <mxPoint as="offset" />
          </mxGeometry>
        </mxCell>
      </root>
    </mxGraphModel>
  </diagram>
</mxfile>
